<svg width="20" height="20" viewBox="0 0 20 20" fill="none" xmlns="http://www.w3.org/2000/svg">
  <path fill-rule="evenodd" clip-rule="evenodd" d="M20 0V20V0ZM0 0V20V0ZM19.844 11.51C18.953 10.098 17.598 9.014 16 8.445V7.944C16.671 7.259 17.065 6.301 16.991 5.25C16.867 3.473 15.389 2.056 13.608 2.002C12.046 1.954 10.719 2.936 10.22 4.315C10.719 4.641 11.149 5.057 11.503 5.535C11.503 5.523 11.5 5.512 11.5 5.5C11.5 4.3 12.563 3.343 13.797 3.522C14.614 3.64 15.284 4.267 15.455 5.074C15.597 5.747 15.396 6.417 14.927 6.896L14.643 7.187C14.551 7.281 14.5 7.406 14.5 7.537V9.151C14.5 9.363 14.633 9.551 14.832 9.622L15.497 9.859C16.733 10.298 17.786 11.121 18.5 12.194V13.5H14.952C15.069 13.673 15.196 13.839 15.301 14.021L15.5 14.369V15H19C19.552 15 20 14.552 20 14V12.048C20 11.858 19.946 11.671 19.844 11.51ZM7.5 5C5.567 5 4 6.567 4 8.5C4 9.452 4.383 10.313 5 10.944V11.445C3.402 12.014 2.047 13.098 1.156 14.51C1.054 14.671 1 14.858 1 15.048V17C1 17.552 1.448 18 2 18H13C13.552 18 14 17.552 14 17V15.048C14 14.858 13.946 14.671 13.844 14.51C12.953 13.098 11.598 12.014 10 11.445V10.944C10.617 10.313 11 9.452 11 8.5C11 6.567 9.433 5 7.5 5ZM7.5 6.5C8.603 6.5 9.5 7.397 9.5 8.5C9.5 9.022 9.297 9.518 8.927 9.896L8.643 10.187C8.551 10.281 8.5 10.406 8.5 10.537V12.151C8.5 12.363 8.633 12.551 8.832 12.622L9.497 12.859C10.733 13.298 11.786 14.121 12.5 15.194V16.5H2.5V15.194C3.214 14.121 4.267 13.298 5.503 12.859L6.168 12.622C6.367 12.551 6.5 12.363 6.5 12.151V10.537C6.5 10.406 6.449 10.281 6.357 10.187L6.073 9.896C5.703 9.518 5.5 9.022 5.5 8.5C5.5 7.397 6.397 6.5 7.5 6.5Z" fill="#343B4C"/>
</svg>
