<svg width="20" height="20" viewBox="0 0 20 20" fill="none" xmlns="http://www.w3.org/2000/svg">
  <path fill-rule="evenodd" clip-rule="evenodd" d="M0 20V0V20ZM20 0V20V0ZM7 14.25V13.75C7 13.474 6.776 13.25 6.5 13.25H5.5V12H4V13.25H3C2.724 13.25 2.5 13.474 2.5 13.75V14.25C2.5 14.526 2.724 14.75 3 14.75H6.5C6.776 14.75 7 14.526 7 14.25ZM7 10.25V9.75C7 9.474 6.776 9.25 6.5 9.25H5.5V8H4V9.25H3C2.724 9.25 2.5 9.474 2.5 9.75V10.25C2.5 10.526 2.724 10.75 3 10.75H6.5C6.776 10.75 7 10.526 7 10.25ZM16 2C16.552 2 17 2.448 17 3V17C17 17.552 16.552 18 16 18H5C4.448 18 4 17.552 4 17V16H5.5V16.5H15.5V3.5H5.5V5.25H6.5C6.776 5.25 7 5.474 7 5.75V6.25C7 6.526 6.776 6.75 6.5 6.75H3C2.724 6.75 2.5 6.526 2.5 6.25V5.75C2.5 5.474 2.724 5.25 3 5.25H4V3C4 2.448 4.448 2 5 2H16Z" fill="#343B4C"/>
</svg>
