<svg width="20" height="20" viewBox="0 0 20 20" fill="none" xmlns="http://www.w3.org/2000/svg">
  <path fill-rule="evenodd" clip-rule="evenodd" d="M16.5 14.5H3.5C3.224 14.5 3 14.724 3 15V15.5C3 15.776 3.224 16 3.5 16H8.5C8.5 16.828 9.172 17.5 10 17.5C10.828 17.5 11.5 16.828 11.5 16H16.5C16.776 16 17 15.776 17 15.5V15C17 14.724 16.776 14.5 16.5 14.5ZM16 13V9C16 5.686 13.314 3 10 3C6.686 3 4 5.686 4 9V13H5.5V9C5.5 6.519 7.519 4.5 10 4.5C12.481 4.5 14.5 6.519 14.5 9V13H16ZM0 20V0V20ZM20 0V20V0Z" fill="#343B4C"/>
</svg>
