<svg width="20" height="20" viewBox="0 0 20 20" fill="none" xmlns="http://www.w3.org/2000/svg">
  <path fill-rule="evenodd" clip-rule="evenodd" d="M0 20V0V20ZM20 0V20V0ZM10 11.5C9.172 11.5 8.5 10.828 8.5 10C8.5 9.172 9.172 8.5 10 8.5C10.828 8.5 11.5 9.172 11.5 10C11.5 10.828 10.828 11.5 10 11.5ZM10 2C9.214 2 8.429 2.115 7.67 2.346C7.263 2.469 7 2.867 7 3.293V4.233C6.78 4.36 6.725 4.392 6.505 4.519L5.7 4.054C5.307 3.827 4.816 3.899 4.487 4.213C3.395 5.254 2.599 6.6 2.233 8.115C2.126 8.558 2.305 9.021 2.7 9.249L3.513 9.719V10.281L2.7 10.751C2.305 10.979 2.126 11.442 2.233 11.885C2.599 13.4 3.395 14.746 4.487 15.787C4.816 16.101 5.307 16.173 5.7 15.946L6.505 15.481C6.725 15.608 6.78 15.64 7 15.767V16.707C7 17.133 7.263 17.531 7.67 17.654C8.429 17.885 9.214 18 10 18C10.786 18 11.571 17.885 12.33 17.654C12.737 17.531 13 17.133 13 16.707V15.767C13.22 15.64 13.275 15.608 13.495 15.481L14.3 15.946C14.693 16.173 15.184 16.101 15.513 15.787C16.605 14.746 17.401 13.4 17.767 11.885C17.874 11.442 17.694 10.979 17.3 10.751L16.487 10.281V9.719L17.3 9.249C17.694 9.021 17.874 8.558 17.767 8.115C17.401 6.6 16.605 5.254 15.513 4.213C15.184 3.899 14.693 3.827 14.3 4.054L13.491 4.521C13.273 4.394 13.218 4.363 13 4.237V3.293C13 2.867 12.737 2.469 12.33 2.346C11.571 2.115 10.786 2 10 2ZM10 13C11.654 13 13 11.654 13 10C13 8.346 11.654 7 10 7C8.346 7 7 8.346 7 10C7 11.654 8.346 13 10 13ZM10 3.5C10.51 3.5 11.011 3.559 11.5 3.674V4.814C11.5 4.993 11.595 5.158 11.75 5.247L13.241 6.108C13.396 6.198 13.587 6.198 13.741 6.108L14.722 5.542C15.421 6.281 15.933 7.167 16.221 8.14L15.237 8.708C15.082 8.798 14.987 8.963 14.987 9.141V10.859C14.987 11.037 15.082 11.202 15.237 11.292L16.221 11.86C15.933 12.833 15.421 13.719 14.722 14.458L13.745 13.894C13.59 13.804 13.399 13.804 13.244 13.894L11.75 14.757C11.595 14.846 11.5 15.011 11.5 15.189V16.326C11.011 16.441 10.51 16.5 10 16.5C9.49 16.5 8.989 16.441 8.5 16.326V15.189C8.5 15.011 8.405 14.846 8.25 14.757L6.756 13.894C6.601 13.804 6.41 13.804 6.255 13.894L5.278 14.458C4.579 13.719 4.067 12.833 3.779 11.86L4.763 11.292C4.918 11.202 5.013 11.037 5.013 10.859V9.141C5.013 8.963 4.918 8.798 4.763 8.708L3.779 8.14C4.067 7.167 4.579 6.281 5.278 5.542L6.255 6.106C6.41 6.196 6.601 6.196 6.756 6.106L8.25 5.243C8.405 5.154 8.5 4.989 8.5 4.81V3.674C8.989 3.559 9.49 3.5 10 3.5Z" fill="#343B4C"/>
</svg>
