<svg width="20" height="20" viewBox="0 0 20 20" fill="none" xmlns="http://www.w3.org/2000/svg">
  <path fill-rule="evenodd" clip-rule="evenodd" d="M3.5 15.5H16.5V9H3.5V15.5ZM17 3H16.5V7.5H3.5V4.5H4.75V5.5C4.75 5.776 4.974 6 5.25 6H5.75C6.026 6 6.25 5.776 6.25 5.5V2.5C6.25 2.224 6.026 2 5.75 2H5.25C4.974 2 4.75 2.224 4.75 2.5V3H3C2.448 3 2 3.448 2 4V8V16C2 16.552 2.448 17 3 17H17C17.552 17 18 16.552 18 16V8V4C18 3.448 17.552 3 17 3ZM14.75 2H14.25C13.974 2 13.75 2.224 13.75 2.5V3H7.75V4.5H13.75V5.5C13.75 5.776 13.974 6 14.25 6H14.75C15.026 6 15.25 5.776 15.25 5.5V2.5C15.25 2.224 15.026 2 14.75 2ZM0 20V0V20ZM20 0V20V0Z" fill="#343B4C"/>
</svg>
